<svg width="30" height="24" viewBox="0 0 30 24" fill="none" xmlns="http://www.w3.org/2000/svg">
<path d="M19.5 19.5C19.5 21.1569 20.8431 22.5 22.5 22.5C24.1569 22.5 25.5 21.1569 25.5 19.5M19.5 19.5C19.5 17.8431 20.8431 16.5 22.5 16.5C24.1569 16.5 25.5 17.8431 25.5 19.5M19.5 19.5H10.5M25.5 19.5H28.5V3C28.5 2.60218 28.342 2.22064 28.0607 1.93934C27.7794 1.65804 27.3978 1.5 27 1.5H13.5V19.5M4.5 19.5C4.5 21.1569 5.84315 22.5 7.5 22.5C9.15685 22.5 10.5 21.1569 10.5 19.5M4.5 19.5C4.5 17.8431 5.84315 16.5 7.5 16.5C9.15685 16.5 10.5 17.8431 10.5 19.5M4.5 19.5H1.5V10.5M1.5 10.5H13.5M1.5 10.5L6 3H13.5" stroke="white" stroke-width="2" stroke-linecap="round" stroke-linejoin="round"/>
</svg>
