<svg width="14" height="14" viewBox="0 0 14 14" fill="none" xmlns="http://www.w3.org/2000/svg">
<path d="M11.821 0.506889L6.87129 5.45664L1.92155 0.506889C1.53499 0.120337 0.893885 0.120337 0.507333 0.506889C0.120781 0.89344 0.120781 1.53455 0.507333 1.9211L5.45708 6.87085L0.507333 11.8206C0.120781 12.2071 0.120781 12.8483 0.507333 13.2348C0.893885 13.6214 1.53499 13.6214 1.92155 13.2348L6.87129 8.28506L11.821 13.2348C12.2076 13.6214 12.8487 13.6214 13.2353 13.2348C13.6218 12.8483 13.6218 12.2071 13.2353 11.8206L8.28551 6.87085L13.2353 1.9211C13.6218 1.53455 13.6218 0.893441 13.2353 0.506889C12.8487 0.120337 12.2076 0.120337 11.821 0.506889Z" fill="#416D49"/>
</svg>
